<?xml version="1.0" encoding="UTF-8" standalone="no"?>
<!-- Uploaded to: SVG Repo, www.svgrepo.com, Generator: SVG Repo Mixer Tools -->

<svg
   fill="#000000"
   height="42"
   width="42"
   version="1.1"
   id="Capa_1"
   viewBox="0 0 23.1525 23.1525"
   xml:space="preserve"
   sodipodi:docname="01_ArteRupestre_BN.svg"
   inkscape:version="1.1.2 (0a00cf5339, 2022-02-04)"
   xmlns:inkscape="http://www.inkscape.org/namespaces/inkscape"
   xmlns:sodipodi="http://sodipodi.sourceforge.net/DTD/sodipodi-0.dtd"
   xmlns="http://www.w3.org/2000/svg"
   xmlns:svg="http://www.w3.org/2000/svg"><defs
   id="defs25">
	
	
	
	
	
	
	
	
	
</defs><sodipodi:namedview
   id="namedview23"
   pagecolor="#ffffff"
   bordercolor="#666666"
   borderopacity="1.0"
   inkscape:pageshadow="2"
   inkscape:pageopacity="0.0"
   inkscape:pagecheckerboard="0"
   showgrid="false"
   fit-margin-top="0"
   fit-margin-left="0"
   fit-margin-right="0"
   fit-margin-bottom="0"
   inkscape:zoom="9.154762"
   inkscape:cx="24.195058"
   inkscape:cy="16.002601"
   inkscape:window-width="1920"
   inkscape:window-height="1019"
   inkscape:window-x="0"
   inkscape:window-y="30"
   inkscape:window-maximized="1"
   inkscape:current-layer="Capa_1" />
<path
   d="M 21.057898,2.0203261 18.567629,3.1544326 10.683044,4.83367 c -0.171,0.036419 -0.326995,0.1232154 -0.448438,0.2492316 L 4.6460237,10.890334 1.3626115,8.6920817 C 0.96072828,8.4229725 0.41685572,8.5307735 0.14810432,8.9324692 c -0.26899,0.4018206 -0.1614334,0.9455173 0.2403873,1.2145068 l 3.83030188,2.564404 2.5374296,2.313006 1.7273312,5.570363 c 0.1432774,0.46186 0.6337537,0.720111 1.0954943,0.576896 0.052046,-0.01617 0.1014725,-0.03677 0.1481148,-0.06122 0.3668156,-0.192298 0.5558176,-0.624575 0.4287846,-1.034272 L 8.6066361,15.07976 9.6775591,14.69718 C 9.7168671,14.6831 9.7544461,14.6666 9.7904718,14.64772 10.170767,14.448352 10.356035,13.99416 10.207314,13.578191 10.044644,13.12285 9.5436065,12.885647 9.088383,13.048256 l -1.3656075,0.487945 -1.700982,-1.55058 5.2883475,-5.4953803 7.272645,-1.5489829 2.635105,2.429995 -0.2107,0.4631152 -2.597281,-0.3443667 c -0.386493,-0.051196 -0.760309,0.1593709 -0.916837,0.5163781 l -1.060092,2.4178796 -4.394144,1.569975 c -0.455826,0.16262 -0.692546,0.663708 -0.529937,1.118931 0.162671,0.455343 0.663708,0.692546 1.118932,0.529938 l 4.310255,-1.539989 4.257846,3.147017 c 0.278797,0.206048 0.639614,0.222193 0.927579,0.07123 0.113439,-0.05947 0.215544,-0.144936 0.29687,-0.254941 0.287374,-0.388799 0.205155,-0.936959 -0.183707,-1.224453 l -4.071146,-3.009025 0.666749,-1.5208047 2.588099,0.3430968 c 0.382265,0.050675 0.752445,-0.1546409 0.911989,-0.5053151 L 23.073943,7.519477 C 23.230357,7.175303 23.148465,6.7696176 22.870452,6.5134319 L 20.406095,4.2408923 21.783603,3.6134911 c 0.01504,-0.00697 0.02985,-0.01412 0.04429,-0.021694 C 22.23634,3.3776743 22.410991,2.8788627 22.217395,2.4538749 22.017121,2.0141313 21.497994,1.8198682 21.057896,2.0203219 Z"
   id="path4"
   style="stroke-width:0.134687" />
</svg>
