<?xml version="1.0" encoding="UTF-8" standalone="no"?>
<!-- Creator: CorelDRAW X8 -->

<svg
   xml:space="preserve"
   width="42"
   height="42"
   version="1.1"
   style="clip-rule:evenodd;fill-rule:evenodd;image-rendering:optimizeQuality;shape-rendering:geometricPrecision;text-rendering:geometricPrecision"
   viewBox="0 0 1110.8052 1111.25"
   id="svg10"
   sodipodi:docname="04_Griego.svg"
   inkscape:version="1.1.2 (0a00cf5339, 2022-02-04)"
   xmlns:inkscape="http://www.inkscape.org/namespaces/inkscape"
   xmlns:sodipodi="http://sodipodi.sourceforge.net/DTD/sodipodi-0.dtd"
   xmlns="http://www.w3.org/2000/svg"
   xmlns:svg="http://www.w3.org/2000/svg"><sodipodi:namedview
   id="namedview12"
   pagecolor="#ffffff"
   bordercolor="#666666"
   borderopacity="1.0"
   inkscape:pageshadow="2"
   inkscape:pageopacity="0.0"
   inkscape:pagecheckerboard="0"
   inkscape:document-units="mm"
   showgrid="false"
   units="px"
   fit-margin-top="0"
   fit-margin-left="0"
   fit-margin-right="0"
   fit-margin-bottom="0"
   inkscape:zoom="18.309524"
   inkscape:cx="21"
   inkscape:cy="21"
   inkscape:window-width="1920"
   inkscape:window-height="1019"
   inkscape:window-x="0"
   inkscape:window-y="30"
   inkscape:window-maximized="1"
   inkscape:current-layer="Capa_x0020_1" />
 <defs
   id="defs4">
  <style
   type="text/css"
   id="style2">
   <![CDATA[
    .fil0 {fill:black}
   ]]>
  </style>
 </defs>
 <g
   id="Capa_x0020_1"
   inkscape:label="Capa 1"
   inkscape:groupmode="layer"
   transform="translate(664.45932,794.26196)">
  <metadata
   id="CorelCorpID_0Corel-Layer" />
  <path
   class="fil0"
   d="m -525.91727,-505.50585 c -80.43921,5.67806 -145.73692,76.65384 -138.16617,158.98572 5.67806,70.97578 69.08308,129.64908 141.95154,121.13198 61.51234,-5.67806 112.61489,-61.51233 104.0978,-125.86368 -6.62441,-52.04892 -53.94159,-94.63437 -108.82952,-86.11728 -42.58546,6.6244 -78.54652,47.31719 -69.08308,93.68801 3.78537,16.08783 13.24881,30.28299 27.44396,40.69279 13.24882,9.46343 32.17569,14.19513 51.10256,8.51709 11.35612,-3.78539 21.7659,-11.35612 28.39031,-22.71225 6.6244,-11.35613 8.51709,-28.39033 0,-42.58546 -7.57075,-10.40979 -14.19515,-13.24883 -24.60494,-14.19516 -4.73171,-0.94634 -11.35612,-1.8927 -18.92687,3.78537 -7.57075,4.73173 -12.30246,14.19516 -12.30246,21.76592 0,5.67804 2.83903,11.3561 6.6244,15.1415 -2.83903,-0.94637 -4.73172,-1.8927 -6.6244,-2.83904 -4.73172,-3.78539 -9.46344,-10.40979 -10.40978,-16.08785 -4.73172,-20.81957 13.24881,-40.69276 34.06837,-44.47816 30.28299,-4.7317 58.6733,20.81956 62.45867,51.10255 4.73172,39.74646 -27.44396,75.70751 -67.19039,79.49288 -49.20987,5.67806 -92.74168,-35.01472 -97.47339,-84.22458 -5.67807,-58.67331 42.58546,-109.77586 101.25876,-114.50758 0,0 0.94635,0 0.94635,0 h 823.31893 c 0.94637,0 0.94637,0 1.8927,0 57.72695,4.73172 105.99047,55.83427 101.25877,114.50759 -4.73173,49.20985 -48.26352,89.90264 -97.4734,84.22458 -39.74643,-3.78537 -72.86845,-39.74642 -68.13675,-79.49289 3.7854,-30.28298 32.17569,-55.83425 62.45868,-51.10255 20.81956,3.7854 38.80009,23.65859 34.06839,44.47816 -0.94636,5.67807 -4.73173,12.30246 -10.40979,16.08785 -1.89267,0.94635 -3.78537,1.89268 -5.67807,2.83905 3.7854,-3.7854 5.67807,-9.46346 5.67807,-15.14151 0,-6.62443 -3.78537,-17.03419 -11.35613,-21.76591 -7.57074,-5.67807 -15.1415,-4.73172 -19.8732,-3.78537 -10.40979,0.94632 -17.03419,3.78537 -23.65859,14.19515 -8.5171,14.19513 -6.6244,31.22933 0,42.58547 6.6244,11.35613 16.08783,18.92685 28.39029,22.71224 17.98053,5.67804 36.90742,0.94635 51.10255,-8.51709 13.24883,-10.4098 22.71226,-24.60496 26.49763,-40.69279 9.46343,-46.37081 -25.55126,-87.06361 -68.13672,-93.688 -54.88795,-8.5171 -103.15147,34.06836 -109.77587,86.11728 -7.57076,64.35134 42.58546,120.18562 104.09781,125.86368 73.81478,8.5171 136.27346,-50.15621 142.89786,-121.13198 7.57076,-82.33189 -58.67329,-153.30767 -139.1125,-158.98573 -1.89269,-0.94635 -2.83903,-0.94635 -4.73173,-0.94635 h -823.31893 c -0.94635,0 -2.83904,0 -4.73172,0.94635 z m -77.60018,-206.30291 c -11.35612,0 -19.87321,9.46343 -19.87321,20.81956 v 40.69278 c 0,5.67806 1.89268,11.35612 5.67806,15.14149 l 82.33189,82.3319 c 3.78538,3.78537 9.46344,5.67806 14.19516,5.67806 h 823.31893 c 5.67807,0 10.4098,-1.89269 14.19516,-5.67806 l 82.33191,-82.3319 c 3.78537,-3.78537 6.6244,-9.46343 6.6244,-15.14149 v -40.69278 c 0,-11.35613 -9.46343,-20.81956 -20.81956,-20.81956 0,0 -987.98274,0 -987.98274,0 z m 20.81956,40.69278 h 946.34362 v 12.30246 l -70.02944,70.02943 h -806.28475 l -70.02943,-70.02943 z m 226.17612,288.63479 c -11.35613,0 -19.87322,9.46343 -19.87322,20.81956 v 575.37692 c 0,11.35611 8.51709,20.81954 19.87322,20.81954 4.73173,0 8.5171,-0.94634 11.35613,-3.78537 l 117.3466,-77.60017 c 5.67807,-3.78537 9.46344,-10.40977 9.46344,-17.03417 l 6.6244,-374.75208 c 0,0 0,0 0,0 0,-13.2488 40.69278,-14.19516 40.69278,0 0,0 0,0 0,0 V 90.690607 c 0,11.356133 9.46344,20.819563 20.81957,20.819563 3.78536,0 7.57076,-1.89267 11.35612,-3.78537 L -15.838058,25.39292 c 5.678064,-3.785394 9.4634311,-10.409793 9.4634311,-17.034193 V -238.63696 c 0,-14.19516 40.6927859,-14.19516 40.6927859,0 v 205.356565 c 0,11.35613 9.463432,20.819561 20.81956,20.819561 3.785368,0 6.6244,-0.946335 9.463432,-1.892696 l 82.331879,-41.639125 c 6.62443,-2.83903 11.35613,-10.40976 11.35613,-17.98052 V -361.66163 c 0,-11.35613 -9.46343,-20.81956 -20.81956,-20.81956 z m 20.81956,40.69279 h 452.35225 v 254.566425 l -40.69276,20.81956 V -238.63696 c 0,-68.13675 -123.971028,-68.13675 -123.971028,0 V -2.997402 l -82.331882,54.88792 v -290.527478 0 c 1.89267,-68.13675 -123.02467,-69.08308 -123.02467,0 v 0 l -6.62443,363.39595 -75.70748,51.10256 z"
   color-rendering="auto"
   color-interpolation="sRGB"
   id="path7"
   style="stroke-width:0.946343" />
 </g>
</svg>
