<?xml version="1.0" encoding="UTF-8"?>
<!DOCTYPE svg PUBLIC "-//W3C//DTD SVG 1.1//EN" "http://www.w3.org/Graphics/SVG/1.1/DTD/svg11.dtd">
<!-- Creator: CorelDRAW X8 -->
<svg xmlns="http://www.w3.org/2000/svg" xml:space="preserve" width="7.72727mm" height="10mm" version="1.1" style="shape-rendering:geometricPrecision; text-rendering:geometricPrecision; image-rendering:optimizeQuality; fill-rule:evenodd; clip-rule:evenodd"
viewBox="0 0 773 1000"
 xmlns:xlink="http://www.w3.org/1999/xlink">
 <defs>
  <style type="text/css">
   <![CDATA[
    .fil0 {fill:black}
   ]]>
  </style>
 </defs>
 <g id="Capa_x0020_1">
  <metadata id="CorelCorpID_0Corel-Layer"/>
  <g id="_1762066678240">
   <path class="fil0" d="M709 408c-31,0 -56,25 -56,56 0,20 12,38 29,48 -8,28 -25,58 -51,73 -51,29 -98,-18 -71,-145 27,-4 47,-27 47,-55 0,-31 -25,-56 -55,-56 -31,0 -56,25 -56,56 0,20 10,37 26,47 -15,74 -38,103 -66,99 -42,-6 -48,-63 -48,-168 20,-8 34,-28 34,-51 0,-31 -25,-56 -56,-56 -30,0 -55,25 -55,56 0,23 14,43 34,51 0,105 -7,162 -48,168 -29,4 -51,-25 -66,-99 16,-10 26,-27 26,-47 0,-31 -25,-56 -56,-56 -31,0 -56,25 -56,56 0,28 21,51 48,55 27,127 -20,174 -72,145 -26,-15 -42,-45 -50,-73 17,-10 28,-28 28,-48 0,-31 -25,-56 -56,-56 -30,0 -55,25 -55,56 0,28 20,51 48,55l38 225 292 0 292 0 39 -225c27,-4 48,-27 48,-55 0,-31 -25,-56 -56,-56z"/>
  </g>
 </g>
</svg>
