<?xml version="1.0" encoding="UTF-8" standalone="no"?>
<!-- Creator: CorelDRAW X8 -->

<svg
   xml:space="preserve"
   width="42"
   height="42"
   version="1.1"
   style="clip-rule:evenodd;fill-rule:evenodd;image-rendering:optimizeQuality;shape-rendering:geometricPrecision;text-rendering:geometricPrecision"
   viewBox="0 0 1111.6426 1111.25"
   id="svg10"
   sodipodi:docname="08_Contemporaneo.svg"
   inkscape:version="1.1.2 (0a00cf5339, 2022-02-04)"
   xmlns:inkscape="http://www.inkscape.org/namespaces/inkscape"
   xmlns:sodipodi="http://sodipodi.sourceforge.net/DTD/sodipodi-0.dtd"
   xmlns="http://www.w3.org/2000/svg"
   xmlns:svg="http://www.w3.org/2000/svg"><sodipodi:namedview
   id="namedview12"
   pagecolor="#ffffff"
   bordercolor="#666666"
   borderopacity="1.0"
   inkscape:pageshadow="2"
   inkscape:pageopacity="0.0"
   inkscape:pagecheckerboard="0"
   inkscape:document-units="mm"
   showgrid="false"
   units="px"
   height="42px"
   inkscape:zoom="13.451675"
   inkscape:cx="14.607846"
   inkscape:cy="18.919576"
   inkscape:window-width="1920"
   inkscape:window-height="1019"
   inkscape:window-x="0"
   inkscape:window-y="30"
   inkscape:window-maximized="1"
   inkscape:current-layer="Capa_x0020_1" />
 <defs
   id="defs4">
  <style
   type="text/css"
   id="style2">
   <![CDATA[
    .fil0 {fill:#231F20}
   ]]>
  </style>
 </defs>
 <g
   id="Capa_x0020_1"
   inkscape:label="Capa 1"
   inkscape:groupmode="layer">
  <metadata
   id="CorelCorpID_0Corel-Layer" />
  <path
   class="fil0"
   d="m 395.19754,649.34186 h 319.32602 c 4.83827,7.25741 16.93396,14.51482 16.93396,21.77223 v 350.77481 c 0,26.6105 -4.83828,43.5444 -24.19137,53.221 -12.09568,7.2574 -53.221,4.8383 -72.57409,4.8383 -50.80187,0 -104.02287,0 -154.82474,0 -58.05928,0 -99.1846,9.6765 -99.1846,-58.0593 V 712.23941 c 0,-14.51481 0,-29.02963 0,-41.12532 0,-9.67654 12.09568,-14.51482 14.51482,-21.77223 z m 2.41914,-123.37596 h 316.90688 c 14.51482,24.19137 16.93396,0 16.93396,48.38273 0,7.25741 2.41913,24.19137 -2.41914,29.02964 -2.41914,7.25741 -9.67655,9.67655 -14.51482,16.93396 H 395.19754 c -2.41914,-7.25741 -9.67655,-9.67655 -12.09568,-16.93396 -4.83828,-4.83827 -2.41914,-55.64014 -2.41914,-60.47841 4.83827,-4.83827 12.09568,-9.67655 16.93396,-16.93396 z M 714.52356,405.00908 c 2.41914,2.41913 4.83827,4.83827 7.25741,7.25741 12.09568,14.51482 9.67655,9.67654 9.67655,38.70618 0,36.28705 0,26.6105 -16.93396,48.38273 H 397.61668 c -19.3531,-24.19136 -16.93396,-12.09568 -16.93396,-38.70618 0,-9.67655 0,-16.93396 0,-26.61051 0,-12.09568 2.41914,-14.51481 7.25741,-19.35309 7.25741,-7.25741 4.83827,-9.67654 19.35309,-9.67654 82.25064,0 169.33956,0 251.5902,0 16.93396,0 38.70619,-2.41914 55.64014,0 z M 501.63955,146.16147 c 12.09568,-4.83827 91.92718,-2.41914 108.86114,0 2.41914,12.09568 -2.41914,33.86791 2.41914,43.54446 2.41913,4.83827 19.35309,14.51482 26.6105,19.35309 24.19136,16.93395 89.50805,65.31668 91.92719,91.92719 0,12.09568 0,31.44877 0,45.96359 0,19.35309 -2.41914,12.09568 -16.93396,29.02964 H 397.61668 c -14.51482,-16.93396 -16.93396,-9.67655 -16.93396,-26.6105 0,-58.05928 -9.67654,-53.22101 38.70619,-99.1846 12.09568,-12.09568 38.70618,-31.44878 53.221,-41.12532 4.83827,-2.41914 21.77223,-12.09568 26.6105,-19.35309 4.83827,-12.09569 -2.41914,-31.44878 2.41914,-43.54446 z M 762.90629,1043.6611 V 932.38081 804.16661 666.27582 c 0,-16.93396 -12.09568,-21.77223 -19.35309,-31.44877 7.25741,-7.25741 12.09568,-9.67655 16.93395,-24.19137 2.41914,-9.67655 2.41914,-65.31669 0,-74.99323 -4.83827,-12.09568 -12.09568,-14.51482 -16.93395,-24.19137 21.77223,-21.77223 19.35309,-21.77223 19.35309,-60.47841 0,-21.77223 2.41914,-33.86791 -9.67655,-50.80187 -2.41913,-2.41913 -7.2574,-7.25741 -7.2574,-9.67654 21.77222,-19.35309 16.93395,-36.28705 16.93395,-72.5741 0,-16.93395 0,-26.6105 -7.25741,-38.70618 -4.83827,-12.09568 -9.67654,-19.35309 -16.93395,-26.6105 -9.67655,-9.67655 -14.51482,-14.51482 -24.19137,-24.19137 -7.25741,-7.25741 -14.51482,-14.51482 -24.19136,-19.35309 -19.3531,-16.93396 -26.61051,-21.77223 -48.38273,-36.28705 v -21.77223 c 24.19136,-2.41913 19.35309,-19.35309 19.35309,-50.80186 0,-21.772225 0,-45.963595 0,-67.735825 0,-26.6105005 -9.67655,-24.1913605 -41.12532,-29.0296405 -41.12532,-4.83827 -87.08892,-4.83827 -128.21424,0 -33.86791,4.83828 -41.12532,4.83828 -41.12532,29.0296405 0,19.3531 0,84.669775 0,101.603735 0,12.09568 7.25741,16.93395 19.35309,16.93395 v 21.77223 c -9.67654,7.25741 -16.93395,12.09568 -26.6105,19.35309 -21.77223,14.51482 -29.02964,19.3531 -48.38273,38.70619 -9.67655,7.25741 -14.51482,14.51482 -21.77223,21.77223 -7.25741,7.25741 -14.51482,16.93395 -19.35309,26.6105 -4.83827,14.51482 -4.83827,24.19136 -4.83827,41.12532 0,24.19136 -4.83828,41.12532 7.25741,58.05928 4.83827,4.83827 9.67654,7.2574 9.67654,12.09568 -19.35309,19.35309 -16.93395,29.02964 -16.93395,60.47841 0,41.12532 -2.41914,38.70618 16.93395,60.47841 -2.41913,9.67655 -9.67654,12.09569 -14.51482,24.19137 -2.41913,9.67654 -2.41913,65.31668 0,74.99323 2.41914,14.51482 9.67655,16.93396 14.51482,24.19137 -7.25741,12.09568 -16.93395,12.09568 -16.93395,43.54445 v 302.39211 c 0,41.12529 -7.25741,74.99319 19.35309,104.02279 24.19136,29.0297 48.38273,26.6105 94.34632,26.6105 21.77223,0 224.9797,0 241.91365,-2.4191 16.93396,-2.4191 31.44878,-14.5148 38.70619,-21.7722 7.25741,-9.6766 19.35309,-26.6105 19.35309,-43.5445 z M 482.28645,37.300335 c 14.51482,-4.83828 55.64014,-7.25741 72.5741,-7.25741 26.6105,0 48.38273,2.41913 74.99323,7.25741 v 79.831495 c -26.6105,-2.41914 -48.38273,-4.83827 -74.99323,-4.83827 l -72.5741,4.83827 z"
   id="path7"
   style="stroke-width:2.41914" />
 </g>
</svg>
