<?xml version="1.0" encoding="UTF-8" standalone="no"?>
<!-- Created with Inkscape (http://www.inkscape.org/) -->

<svg
   width="42"
   height="42"
   viewBox="0 0 11.1125 11.1125"
   version="1.1"
   id="svg5"
   sodipodi:docname="08_Contemporaneo.svg"
   inkscape:version="1.1.2 (0a00cf5339, 2022-02-04)"
   xmlns:inkscape="http://www.inkscape.org/namespaces/inkscape"
   xmlns:sodipodi="http://sodipodi.sourceforge.net/DTD/sodipodi-0.dtd"
   xmlns="http://www.w3.org/2000/svg"
   xmlns:svg="http://www.w3.org/2000/svg">
  <sodipodi:namedview
     id="namedview7"
     pagecolor="#ffffff"
     bordercolor="#666666"
     borderopacity="1.0"
     inkscape:pageshadow="2"
     inkscape:pageopacity="0.0"
     inkscape:pagecheckerboard="0"
     inkscape:document-units="mm"
     showgrid="false"
     units="px"
     width="42px"
     inkscape:zoom="16.431815"
     inkscape:cx="20.995855"
     inkscape:cy="20.995855"
     inkscape:window-width="1920"
     inkscape:window-height="1012"
     inkscape:window-x="0"
     inkscape:window-y="0"
     inkscape:window-maximized="1"
     inkscape:current-layer="layer1" />
  <defs
     id="defs2" />
  <g
     inkscape:label="Capa 1"
     inkscape:groupmode="layer"
     id="layer1">
    <path
       style="fill:none;stroke:#000000;stroke-width:0.5;stroke-linecap:round;stroke-linejoin:round;stroke-miterlimit:4;stroke-dasharray:none;stroke-opacity:1"
       d="M 3.5078849,10.382167 9.3531129,8.6094235 9.8261867,1.4178812 0.62310515,1.8728071 1.3920394,8.6898123 8.1159783,6.3414769 7.1203234,2.6438162 2.8712902,3.0756819"
       id="path873"
       sodipodi:nodetypes="cccccccc" />
    <ellipse
       style="fill:none;stroke:#000000;stroke-width:0.332501"
       id="path897"
       cx="4.5169492"
       cy="-7.0865345"
       rx="1.8108099"
       ry="1.6562803"
       transform="matrix(-0.61089496,0.79171166,-0.96749975,-0.25287198,0,0)" />
    <path
       style="fill:none;stroke:#000000;stroke-width:0.264583px;stroke-linecap:butt;stroke-linejoin:miter;stroke-opacity:1"
       d="M 9.8261867,1.4178812 C 3.2369489,3.7486975 3.6576634,5.3743772 5.1396588,6.2610209 8.9828193,8.5602955 3.5078849,10.382167 3.5078849,10.382167"
       id="path1012"
       sodipodi:nodetypes="csc" />
    <path
       style="fill:#000000;fill-opacity:1;stroke:#000000;stroke-width:0.264583px;stroke-linecap:butt;stroke-linejoin:miter;stroke-opacity:1"
       d="M 4.7763627,3.9256965 3.5356491,4.3151896 2.2778838,5.2051426 2.1819118,6.2554167 c 0,0 0.3535798,0.4618836 0.4199224,0.4618836 0.066343,0 1.0907116,-0.082968 1.0907116,-0.082968 L 4.7275962,6.501346 5.2232512,6.3260117 4.5607316,5.9411703 4.1230268,5.0945003 4.1298703,4.5746442 Z"
       id="path1612"
       sodipodi:nodetypes="ccccsccccccc" />
    <ellipse
       style="fill:none;fill-opacity:1;stroke:#000000;stroke-width:0.5;stroke-linecap:round;stroke-linejoin:round;stroke-miterlimit:4;stroke-dasharray:none"
       id="path6204"
       cx="9.2456703"
       cy="8.7024784"
       rx="1.1107683"
       ry="1.4513507" />
    <path
       style="fill:#000000;stroke:#000000;stroke-width:0.264583px;stroke-linecap:butt;stroke-linejoin:miter;stroke-opacity:1;fill-opacity:1"
       d="M 9.3531128,8.6094233 8.2744105,8.9686309 8.5004721,9.6786482 8.7013507,9.97798 9.3302255,10.10396 9.8724094,9.8868909 10.106167,9.4844369 10.388109,8.8535776 10.394974,8.156523 10.117442,7.5963631 9.4455434,7.3320695 Z"
       id="path6740" />
  </g>
</svg>
