{
  "accessors": [
    {
      "bufferView": 1,
      "componentType": 5126,
      "count": 30488,
      "max": [
        2.740427017211914,
        19.24466323852539,
        6.123385906219482
      ],
      "min": [
        -4.781274795532227,
        11.285228729248047,
        -6.126007080078125
      ],
      "type": "VEC3"
    },
    {
      "bufferView": 1,
      "byteOffset": 365856,
      "componentType": 5126,
      "count": 30488,
      "max": [
        0.9999637007713318,
        0.9999380707740784,
        0.9999923706054688
      ],
      "min": [
        -0.9999865889549255,
        -0.9999663829803467,
        -0.9999181628227234
      ],
      "type": "VEC3"
    },
    {
      "bufferView": 2,
      "componentType": 5126,
      "count": 30488,
      "max": [
        0.9960784316062927,
        0.9843137264251709,
        0.9803921580314636,
        1.0
      ],
      "min": [
        0.0235294122248888,
        0.027450980618596077,
        0.007843137718737125,
        1.0
      ],
      "type": "VEC4"
    },
    {
      "bufferView": 0,
      "componentType": 5125,
      "count": 146442,
      "type": "SCALAR"
    }
  ],
  "asset": {
    "extras": {
      "author": "kevincortes1844 (https://sketchfab.com/kevincortes1844)",
      "license": "CC-BY-4.0 (http://creativecommons.org/licenses/by/4.0/)",
      "source": "https://sketchfab.com/3d-models/mano-3d-ua-kcd-p6-b077081bd6b64e4cb1d1e97163be122f",
      "title": "Mano 3D UA (KCD_P6)"
    },
    "generator": "Sketchfab-15.12.0",
    "version": "2.0"
  },
  "bufferViews": [
    {
      "buffer": 0,
      "byteLength": 585768,
      "name": "floatBufferViews",
      "target": 34963
    },
    {
      "buffer": 0,
      "byteLength": 731712,
      "byteOffset": 585768,
      "byteStride": 12,
      "name": "floatBufferViews",
      "target": 34962
    },
    {
      "buffer": 0,
      "byteLength": 487808,
      "byteOffset": 1317480,
      "byteStride": 16,
      "name": "floatBufferViews",
      "target": 34962
    }
  ],
  "buffers": [
    {
      "byteLength": 1805288,
      "uri": "scene.bin"
    }
  ],
  "materials": [
    {
      "doubleSided": true,
      "name": "Solid",
      "pbrMetallicRoughness": {
        "metallicFactor": 0.0,
        "roughnessFactor": 0.6
      }
    }
  ],
  "meshes": [
    {
      "name": "Object_0",
      "primitives": [
        {
          "attributes": {
            "COLOR_0": 2,
            "NORMAL": 1,
            "POSITION": 0
          },
          "indices": 3,
          "material": 0,
          "mode": 4
        }
      ]
    }
  ],
  "nodes": [
    {
      "children": [
        1
      ],
      "matrix": [
        1.0,
        0.0,
        0.0,
        0.0,
        0.0,
        2.220446049250313e-16,
        -1.0,
        0.0,
        0.0,
        1.0,
        2.220446049250313e-16,
        0.0,
        0.0,
        0.0,
        0.0,
        1.0
      ],
      "name": "Sketchfab_model"
    },
    {
      "children": [
        2
      ],
      "name": "Mano 3D UA.obj.cleaner.materialmerger.gles"
    },
    {
      "mesh": 0,
      "name": "Object_2"
    }
  ],
  "scene": 0,
  "scenes": [
    {
      "name": "Sketchfab_Scene",
      "nodes": [
        0
      ]
    }
  ]
}
